<?xml version="1.0" encoding="UTF-8"?>
<!DOCTYPE svg PUBLIC "-//W3C//DTD SVG 1.1//EN" "http://www.w3.org/Graphics/SVG/1.1/DTD/svg11.dtd">
<svg xmlns="http://www.w3.org/2000/svg" version="1.1" width="512px" height="365px" style="shape-rendering:geometricPrecision; text-rendering:geometricPrecision; image-rendering:optimizeQuality; fill-rule:evenodd; clip-rule:evenodd" xmlns:xlink="http://www.w3.org/1999/xlink">
<g><path style="opacity:0.806" fill="#000000" d="M 511.5,279.5 C 511.5,283.5 511.5,287.5 511.5,291.5C 509.918,293.97 507.585,295.47 504.5,296C 456.83,296.167 409.163,296.667 361.5,297.5C 356.79,315.302 350.123,332.302 341.5,348.5C 339.823,345.147 337.657,342.147 335,339.5C 331.635,341.111 328.135,341.945 324.5,342C 333.662,328.014 339.995,312.847 343.5,296.5C 231.166,296.667 118.833,296.5 6.5,296C 3.41501,295.47 1.08167,293.97 -0.5,291.5C -0.5,287.5 -0.5,283.5 -0.5,279.5C 17.8188,208.563 36.3188,137.563 55,66.5C 58.9795,61.1179 64.1461,59.4512 70.5,61.5C 81.7838,53.5507 92.7838,45.2173 103.5,36.5C 110.209,38.1887 117.043,39.1887 124,39.5C 145.851,38.0438 167.685,36.3771 189.5,34.5C 213.147,34.6066 235.147,40.6066 255.5,52.5C 279.317,38.7024 304.983,32.869 332.5,35C 350.623,37.0415 368.79,38.5415 387,39.5C 394.107,39.1565 401.107,38.1565 408,36.5C 418.395,45.3936 429.228,53.7269 440.5,61.5C 449.565,59.0485 455.398,62.3818 458,71.5C 475.55,141.036 493.383,210.369 511.5,279.5 Z M 182.5,38.5 C 208.033,37.6272 231.533,43.9605 253,57.5C 253.833,124.836 253.667,192.169 252.5,259.5C 221.059,248.699 188.726,244.199 155.5,246C 129.396,248.949 103.229,251.116 77,252.5C 70.3932,252.644 63.8932,251.977 57.5,250.5C 57.1667,250 56.8333,249.5 56.5,249C 72.6018,179.76 88.9351,110.594 105.5,41.5C 111.733,42.9209 118.067,43.5876 124.5,43.5C 144.064,42.7813 163.398,41.1147 182.5,38.5 Z M 313.5,38.5 C 337.823,40.2262 362.156,41.8928 386.5,43.5C 392.933,43.5876 399.267,42.9209 405.5,41.5C 422.065,110.594 438.398,179.76 454.5,249C 454.167,249.5 453.833,250 453.5,250.5C 447.107,251.977 440.607,252.644 434,252.5C 407.771,251.116 381.604,248.949 355.5,246C 322.274,244.199 289.941,248.699 258.5,259.5C 257.333,192.169 257.167,124.836 258,57.5C 275.027,46.6583 293.527,40.325 313.5,38.5 Z M 98.5,45.5 C 83.9582,112.003 68.7915,178.669 53,245.5C 52.7261,248.715 51.3927,251.381 49,253.5C 64.3266,185.52 79.9932,117.52 96,49.5C 96.6622,48.0161 97.4955,46.6828 98.5,45.5 Z M 411.5,45.5 C 413.173,46.343 414.34,47.6763 415,49.5C 431.007,117.52 446.673,185.52 462,253.5C 459.607,251.381 458.274,248.715 458,245.5C 442.561,178.8 427.061,112.133 411.5,45.5 Z M 42.5,258.5 C 57.8844,190.081 73.7177,121.747 90,53.5C 90.6667,52.8333 91.3333,52.1667 92,51.5C 76.8269,119.865 61.1603,188.199 45,256.5C 44.2917,257.381 43.4584,258.047 42.5,258.5 Z M 468.5,258.5 C 466.172,257.264 465.006,255.264 465,252.5C 449.173,185.532 433.84,118.532 419,51.5C 421.234,54.3989 422.567,57.7322 423,61.5C 438.361,127.139 453.527,192.806 468.5,258.5 Z M 84.5,56.5 C 85.3764,56.3691 86.0431,56.7025 86.5,57.5C 70.3306,125.51 54.1639,193.51 38,261.5C 37.0347,263.26 35.868,263.594 34.5,262.5C 50.3126,195.249 65.8126,127.916 81,60.5C 82.3756,59.2949 83.5423,57.9616 84.5,56.5 Z M 424.5,56.5 C 426.716,57.2026 428.549,58.5359 430,60.5C 445.701,128.282 460.868,195.949 475.5,263.5C 472.717,261.605 471.217,258.939 471,255.5C 455.653,189.112 440.153,122.779 424.5,56.5 Z M 76.5,62.5 C 77.0967,62.7352 77.4301,63.2352 77.5,64C 62.1489,131.592 46.4822,199.092 30.5,266.5C 28.9222,267.64 27.2555,268.14 25.5,268C 41.2389,200.876 56.9055,133.71 72.5,66.5C 74.188,65.4787 75.5213,64.1454 76.5,62.5 Z M 433.5,62.5 C 437.387,64.2257 439.554,67.2257 440,71.5C 455.391,137.368 470.225,203.035 484.5,268.5C 481.114,267.897 479.281,265.897 479,262.5C 463.767,195.833 448.6,129.167 433.5,62.5 Z M 67.5,68.5 C 68.1239,68.9169 68.4573,69.5836 68.5,70.5C 53.3744,137.5 37.7077,204.333 21.5,271C 19.2537,272.039 17.087,273.206 15,274.5C 30.5279,207.386 46.8612,140.386 64,73.5C 64.6695,71.4098 65.8361,69.7432 67.5,68.5 Z M 442.5,68.5 C 444.803,69.4105 446.303,71.0772 447,73.5C 464.139,140.386 480.472,207.386 496,274.5C 493.913,273.206 491.746,272.039 489.5,271C 472.973,203.723 457.306,136.223 442.5,68.5 Z M 160.5,249.5 C 190.653,248.831 219.987,253.331 248.5,263C 247.584,263.374 246.75,263.874 246,264.5C 215.215,255.038 183.715,251.538 151.5,254C 117.982,259.347 84.3156,260.68 50.5,258C 53.4638,254.164 57.1304,253.497 61.5,256C 94.7942,256.258 127.794,254.091 160.5,249.5 Z M 330.5,249.5 C 359.559,250.739 388.559,252.906 417.5,256C 428.167,256.667 438.833,256.667 449.5,256C 453.87,253.497 457.536,254.164 460.5,258C 426.684,260.68 393.018,259.347 359.5,254C 327.285,251.538 295.785,255.038 265,264.5C 262.266,263.638 262.099,262.805 264.5,262C 286.165,255.299 308.165,251.132 330.5,249.5 Z M 161.5,255.5 C 188.728,254.951 215.395,258.451 241.5,266C 239.722,266.704 237.888,267.204 236,267.5C 214.4,261.655 192.4,258.655 170,258.5C 149.415,259.375 128.915,261.209 108.5,264C 91.8333,264.667 75.1667,264.667 58.5,264C 54.0823,263.792 49.749,263.126 45.5,262C 47.1992,261.042 49.0326,260.542 51,260.5C 71.1478,262.862 91.3145,263.028 111.5,261C 128.318,259.146 144.984,257.312 161.5,255.5 Z M 330.5,255.5 C 363.008,257.626 395.508,259.959 428,262.5C 438.681,261.999 449.348,261.333 460,260.5C 461.967,260.542 463.801,261.042 465.5,262C 461.251,263.126 456.918,263.792 452.5,264C 435.833,264.667 419.167,264.667 402.5,264C 382.085,261.209 361.585,259.375 341,258.5C 318.6,258.655 296.6,261.655 275,267.5C 273.112,267.204 271.278,266.704 269.5,266C 289.552,260.115 309.886,256.615 330.5,255.5 Z M 152.5,261.5 C 178.179,260.228 203.512,262.562 228.5,268.5C 229.167,268.833 229.833,269.167 230.5,269.5C 229.5,269.833 228.5,270.167 227.5,270.5C 209.271,266.027 190.771,264.027 172,264.5C 140.472,266.096 108.972,268.096 77.5,270.5C 64.3229,270.819 51.3229,269.652 38.5,267C 39.6651,265.916 40.9984,265.083 42.5,264.5C 62.3872,267.305 82.3872,268.139 102.5,267C 119.367,265.639 136.034,263.806 152.5,261.5 Z M 323.5,261.5 C 331.5,261.5 339.5,261.5 347.5,261.5C 347.5,262.5 347.5,263.5 347.5,264.5C 325.886,263.595 304.552,265.595 283.5,270.5C 279.622,269.899 279.622,269.065 283.5,268C 296.856,265.051 310.189,262.885 323.5,261.5 Z M 364.5,262.5 C 392.015,266.732 419.682,268.232 447.5,267C 454.579,266.661 461.579,265.827 468.5,264.5C 470.002,265.083 471.335,265.916 472.5,267C 459.677,269.652 446.677,270.819 433.5,270.5C 410.439,269.641 387.439,267.975 364.5,265.5C 364.5,264.5 364.5,263.5 364.5,262.5 Z M 164.5,266.5 C 183.701,266.325 202.701,268.159 221.5,272C 222.167,272.333 222.833,272.667 223.5,273C 221.722,273.704 219.888,274.204 218,274.5C 201.177,271.07 184.177,269.404 167,269.5C 134.639,271.133 102.305,273.133 70,275.5C 56.3565,275.886 42.8565,274.719 29.5,272C 31.2738,271.03 33.1072,270.196 35,269.5C 49.0523,271.889 63.219,273.222 77.5,273.5C 106.681,271.512 135.681,269.179 164.5,266.5 Z M 330.5,266.5 C 335.511,266.334 340.511,266.501 345.5,267C 346.308,267.308 346.975,267.808 347.5,268.5C 329.189,269.254 311.023,271.254 293,274.5C 291.112,274.204 289.278,273.704 287.5,273C 301.723,269.267 316.057,267.1 330.5,266.5 Z M 364.5,267.5 C 387.362,270.485 410.362,272.485 433.5,273.5C 447.781,273.222 461.948,271.889 476,269.5C 477.893,270.196 479.726,271.03 481.5,272C 468.143,274.719 454.643,275.886 441,275.5C 415.478,274.164 389.978,272.498 364.5,270.5C 364.5,269.5 364.5,268.5 364.5,267.5 Z M 141.5,272.5 C 157.503,272.333 173.503,272.5 189.5,273C 196.898,273.533 204.231,274.533 211.5,276C 176.833,276.667 142.167,276.667 107.5,276C 118.999,274.972 130.333,273.805 141.5,272.5 Z M 321.5,272.5 C 330.167,272.5 338.833,272.5 347.5,272.5C 347.5,273.833 347.5,275.167 347.5,276.5C 331.497,276.667 315.497,276.5 299.5,276C 306.955,274.675 314.288,273.509 321.5,272.5 Z M 364.5,272.5 C 416.382,275.819 416.382,277.152 364.5,276.5C 364.5,275.167 364.5,273.833 364.5,272.5 Z M 24.5,274.5 C 28.1879,274.781 31.8546,275.281 35.5,276C 31.1667,276.667 26.8333,276.667 22.5,276C 23.4158,275.722 24.0825,275.222 24.5,274.5 Z M 481.5,274.5 C 483.989,274.298 486.323,274.798 488.5,276C 484.167,276.667 479.833,276.667 475.5,276C 477.708,275.809 479.708,275.309 481.5,274.5 Z"/></g>
<g><path style="opacity:0.563" fill="#000000" d="M 153.5,57.5 C 156.5,57.5 159.5,57.5 162.5,57.5C 162.5,58.5 162.5,59.5 162.5,60.5C 157.901,60.2 153.401,60.5333 149,61.5C 148.517,60.552 148.351,59.552 148.5,58.5C 150.415,58.7845 152.081,58.4511 153.5,57.5 Z"/></g>
<g><path style="opacity:0.702" fill="#000000" d="M 166.5,57.5 C 169.898,57.1796 173.232,57.513 176.5,58.5C 174.833,58.8333 173.167,59.1667 171.5,59.5C 169.36,59.4439 167.694,58.7773 166.5,57.5 Z"/></g>
<g><path style="opacity:0.569" fill="#000000" d="M 183.5,57.5 C 188.518,57.6133 193.518,57.9466 198.5,58.5C 198.719,59.675 198.386,60.675 197.5,61.5C 192.9,60.5565 188.233,60.2232 183.5,60.5C 183.5,59.5 183.5,58.5 183.5,57.5 Z"/></g>
<g><path style="opacity:0.569" fill="#000000" d="M 318.5,57.5 C 321.5,57.5 324.5,57.5 327.5,57.5C 327.5,58.5 327.5,59.5 327.5,60.5C 322.767,60.2232 318.1,60.5565 313.5,61.5C 312.614,60.675 312.281,59.675 312.5,58.5C 314.735,58.7947 316.735,58.4614 318.5,57.5 Z"/></g>
<g><path style="opacity:0.702" fill="#000000" d="M 334.5,57.5 C 337.898,57.1796 341.232,57.513 344.5,58.5C 342.833,58.8333 341.167,59.1667 339.5,59.5C 337.36,59.4439 335.694,58.7773 334.5,57.5 Z"/></g>
<g><path style="opacity:0.563" fill="#000000" d="M 348.5,57.5 C 353.193,57.5401 357.859,57.8734 362.5,58.5C 362.649,59.552 362.483,60.552 362,61.5C 357.599,60.5333 353.099,60.2 348.5,60.5C 348.5,59.5 348.5,58.5 348.5,57.5 Z"/></g>
<g><path style="opacity:0.624" fill="#000000" d="M 134.5,59.5 C 137.572,59.1826 140.572,59.5159 143.5,60.5C 142.624,61.2508 141.624,61.7508 140.5,62C 136.911,62.2069 133.411,62.7069 130,63.5C 129.517,62.552 129.351,61.552 129.5,60.5C 131.415,60.7845 133.081,60.4511 134.5,59.5 Z"/></g>
<g><path style="opacity:0.544" fill="#000000" d="M 205.5,59.5 C 212.862,60.3136 220.195,61.3136 227.5,62.5C 227.5,63.5 227.5,64.5 227.5,65.5C 220.228,64.0659 212.895,63.0659 205.5,62.5C 205.5,61.5 205.5,60.5 205.5,59.5 Z"/></g>
<g><path style="opacity:0.546" fill="#000000" d="M 300.5,59.5 C 302.167,59.5 303.833,59.5 305.5,59.5C 305.5,60.5 305.5,61.5 305.5,62.5C 298.105,63.0659 290.772,64.0659 283.5,65.5C 283.5,64.5 283.5,63.5 283.5,62.5C 289.358,61.8589 295.025,60.8589 300.5,59.5 Z"/></g>
<g><path style="opacity:0.608" fill="#000000" d="M 367.5,59.5 C 372.193,59.5401 376.859,59.8734 381.5,60.5C 381.649,61.552 381.483,62.552 381,63.5C 377.589,62.7069 374.089,62.2069 370.5,62C 368.881,61.7645 367.881,60.9311 367.5,59.5 Z"/></g>
<g><path style="opacity:0.583" fill="#000000" d="M 114.5,61.5 C 117.572,61.1826 120.572,61.5159 123.5,62.5C 119.668,64.5919 115.668,64.9252 111.5,63.5C 112.602,62.8243 113.602,62.1577 114.5,61.5 Z"/></g>
<g><path style="opacity:0.583" fill="#000000" d="M 387.5,61.5 C 391.722,61.0781 395.722,61.7448 399.5,63.5C 396.554,64.6548 393.554,64.8214 390.5,64C 388.881,63.7645 387.881,62.9311 387.5,61.5 Z"/></g>
<g><path style="opacity:0.548" fill="#000000" d="M 232.5,64.5 C 236.197,65.0078 239.864,65.6745 243.5,66.5C 243.719,67.675 243.386,68.675 242.5,69.5C 239.55,68.5123 236.55,67.679 233.5,67C 232.748,66.3292 232.414,65.4959 232.5,64.5 Z"/></g>
<g><path style="opacity:0.557" fill="#000000" d="M 274.5,64.5 C 275.978,64.238 277.311,64.5713 278.5,65.5C 278.291,66.086 277.957,66.586 277.5,67C 274.45,67.679 271.45,68.5123 268.5,69.5C 267.614,68.675 267.281,67.675 267.5,66.5C 270.067,66.2785 272.401,65.6118 274.5,64.5 Z"/></g>
<g><path style="opacity:0.589" fill="#000000" d="M 158.5,67.5 C 179.743,67.862 179.743,68.862 158.5,70.5C 158.5,69.5 158.5,68.5 158.5,67.5 Z"/></g>
<g><path style="opacity:0.592" fill="#000000" d="M 183.5,67.5 C 193.554,68.02 203.554,69.02 213.5,70.5C 213.649,71.552 213.483,72.552 213,73.5C 203.303,71.5896 193.469,70.5896 183.5,70.5C 183.5,69.5 183.5,68.5 183.5,67.5 Z"/></g>
<g><path style="opacity:0.592" fill="#000000" d="M 319.5,67.5 C 322.167,67.5 324.833,67.5 327.5,67.5C 327.5,68.5 327.5,69.5 327.5,70.5C 317.531,70.5896 307.697,71.5896 298,73.5C 297.517,72.552 297.351,71.552 297.5,70.5C 304.971,69.4937 312.305,68.4937 319.5,67.5 Z"/></g>
<g><path style="opacity:0.589" fill="#000000" d="M 336.5,67.5 C 341.833,67.5 347.167,67.5 352.5,67.5C 352.5,68.5 352.5,69.5 352.5,70.5C 348.303,70.5708 344.137,70.2375 340,69.5C 338.319,69.3917 337.152,68.7251 336.5,67.5 Z"/></g>
<g><path style="opacity:0.56" fill="#000000" d="M 144.5,68.5 C 147.722,68.1081 150.722,68.6081 153.5,70C 147.584,71.3798 141.584,72.2131 135.5,72.5C 135.5,71.5 135.5,70.5 135.5,69.5C 138.713,69.81 141.713,69.4767 144.5,68.5 Z"/></g>
<g><path style="opacity:0.56" fill="#000000" d="M 358.5,68.5 C 364.161,68.9068 369.828,69.2401 375.5,69.5C 375.5,70.5 375.5,71.5 375.5,72.5C 369.416,72.2131 363.416,71.3798 357.5,70C 358.056,69.6174 358.389,69.1174 358.5,68.5 Z"/></g>
<g><path style="opacity:0.58" fill="#000000" d="M 125.5,70.5 C 126.833,70.5 128.167,70.5 129.5,70.5C 129.5,71.5 129.5,72.5 129.5,73.5C 122.468,73.9271 115.468,74.5938 108.5,75.5C 108.5,74.5 108.5,73.5 108.5,72.5C 114.36,72.2832 120.027,71.6165 125.5,70.5 Z"/></g>
<g><path style="opacity:0.579" fill="#000000" d="M 381.5,70.5 C 388.485,71.2865 395.485,71.9532 402.5,72.5C 402.5,73.5 402.5,74.5 402.5,75.5C 395.541,74.5041 388.541,73.8374 381.5,73.5C 381.5,72.5 381.5,71.5 381.5,70.5 Z"/></g>
<g><path style="opacity:0.562" fill="#000000" d="M 220.5,71.5 C 228.191,73.0382 235.857,74.7049 243.5,76.5C 243.719,77.675 243.386,78.675 242.5,79.5C 235.234,77.5168 227.901,75.8502 220.5,74.5C 220.5,73.5 220.5,72.5 220.5,71.5 Z"/></g>
<g><path style="opacity:0.552" fill="#000000" d="M 288.5,71.5 C 290.048,71.8212 290.715,72.8212 290.5,74.5C 283.099,75.8502 275.766,77.5168 268.5,79.5C 267.614,78.675 267.281,77.675 267.5,76.5C 274.648,74.9616 281.648,73.295 288.5,71.5 Z"/></g>
<g><path style="opacity:0.639" fill="#000000" d="M 154.5,79.5 C 160.167,79.5 165.833,79.5 171.5,79.5C 171.5,80.5 171.5,81.5 171.5,82.5C 158.384,82.2543 145.384,83.2543 132.5,85.5C 131.614,84.675 131.281,83.675 131.5,82.5C 139.309,81.5608 146.976,80.5608 154.5,79.5 Z"/></g>
<g><path style="opacity:0.653" fill="#000000" d="M 181.5,79.5 C 186.527,79.5029 191.527,79.8363 196.5,80.5C 196.5,81.5 196.5,82.5 196.5,83.5C 191.547,82.6708 186.547,82.3375 181.5,82.5C 181.5,81.5 181.5,80.5 181.5,79.5 Z"/></g>
<g><path style="opacity:0.653" fill="#000000" d="M 319.5,79.5 C 322.833,79.5 326.167,79.5 329.5,79.5C 329.5,80.5 329.5,81.5 329.5,82.5C 324.453,82.3375 319.453,82.6708 314.5,83.5C 314.5,82.5 314.5,81.5 314.5,80.5C 316.415,80.7845 318.081,80.4511 319.5,79.5 Z"/></g>
<g><path style="opacity:0.64" fill="#000000" d="M 339.5,79.5 C 352.917,79.5381 366.25,80.5381 379.5,82.5C 379.719,83.675 379.386,84.675 378.5,85.5C 365.616,83.2454 352.616,82.2454 339.5,82.5C 339.5,81.5 339.5,80.5 339.5,79.5 Z"/></g>
<g><path style="opacity:0.63" fill="#000000" d="M 202.5,81.5 C 216.367,82.6734 230.033,85.0067 243.5,88.5C 243.5,89.5 243.5,90.5 243.5,91.5C 230.313,88.2961 216.98,85.7961 203.5,84C 202.748,83.3292 202.414,82.4959 202.5,81.5 Z"/></g>
<g><path style="opacity:0.625" fill="#000000" d="M 300.5,81.5 C 303.167,81.5 305.833,81.5 308.5,81.5C 308.5,82.5 308.5,83.5 308.5,84.5C 294.633,85.6734 280.967,88.0067 267.5,91.5C 267.5,90.5 267.5,89.5 267.5,88.5C 278.591,86.0166 289.591,83.6833 300.5,81.5 Z"/></g>
<g><path style="opacity:0.609" fill="#000000" d="M 114.5,83.5 C 117.833,83.5 121.167,83.5 124.5,83.5C 124.5,84.5 124.5,85.5 124.5,86.5C 118.155,86.6527 111.822,86.986 105.5,87.5C 105.5,86.5 105.5,85.5 105.5,84.5C 108.713,84.81 111.713,84.4767 114.5,83.5 Z"/></g>
<g><path style="opacity:0.608" fill="#000000" d="M 386.5,83.5 C 392.838,83.7671 399.171,84.1005 405.5,84.5C 405.5,85.5 405.5,86.5 405.5,87.5C 399.489,87.199 393.489,86.699 387.5,86C 386.748,85.3292 386.414,84.4959 386.5,83.5 Z"/></g>
<g><path style="opacity:0.558" fill="#000000" d="M 159.5,91.5 C 163.5,91.5 167.5,91.5 171.5,91.5C 171.5,92.5 171.5,93.5 171.5,94.5C 167.5,94.5 163.5,94.5 159.5,94.5C 159.5,93.5 159.5,92.5 159.5,91.5 Z"/></g>
<g><path style="opacity:0.633" fill="#000000" d="M 179.5,91.5 C 187.195,91.9636 194.861,92.6303 202.5,93.5C 202.719,94.675 202.386,95.675 201.5,96.5C 194.226,95.3937 186.893,94.727 179.5,94.5C 179.5,93.5 179.5,92.5 179.5,91.5 Z"/></g>
<g><path style="opacity:0.633" fill="#000000" d="M 324.5,91.5 C 326.833,91.5 329.167,91.5 331.5,91.5C 331.5,92.5 331.5,93.5 331.5,94.5C 324.107,94.727 316.774,95.3937 309.5,96.5C 308.614,95.675 308.281,94.675 308.5,93.5C 313.986,92.9818 319.319,92.3151 324.5,91.5 Z"/></g>
<g><path style="opacity:0.558" fill="#000000" d="M 339.5,91.5 C 343.5,91.5 347.5,91.5 351.5,91.5C 351.5,92.5 351.5,93.5 351.5,94.5C 347.5,94.5 343.5,94.5 339.5,94.5C 339.5,93.5 339.5,92.5 339.5,91.5 Z"/></g>
<g><path style="opacity:0.641" fill="#000000" d="M 146.5,92.5 C 148.167,92.5 149.833,92.5 151.5,92.5C 151.5,93.5 151.5,94.5 151.5,95.5C 142.918,96.1755 134.418,97.1755 126,98.5C 125.342,96.892 125.842,95.7253 127.5,95C 134.029,94.5516 140.363,93.7183 146.5,92.5 Z"/></g>
<g><path style="opacity:0.633" fill="#000000" d="M 359.5,92.5 C 367.499,93.2666 375.499,94.0999 383.5,95C 385.158,95.7253 385.658,96.892 385,98.5C 376.582,97.1755 368.082,96.1755 359.5,95.5C 359.5,94.5 359.5,93.5 359.5,92.5 Z"/></g>
<g><path style="opacity:0.597" fill="#000000" d="M 208.5,94.5 C 212.877,94.5775 217.21,95.0775 221.5,96C 222.973,96.7096 223.64,97.8762 223.5,99.5C 218.575,98.3155 213.575,97.6488 208.5,97.5C 208.5,96.5 208.5,95.5 208.5,94.5 Z"/></g>
<g><path style="opacity:0.604" fill="#000000" d="M 295.5,94.5 C 297.833,94.5 300.167,94.5 302.5,94.5C 302.5,95.5 302.5,96.5 302.5,97.5C 297.425,97.6488 292.425,98.3155 287.5,99.5C 287.281,98.325 287.614,97.325 288.5,96.5C 290.982,95.9329 293.316,95.2663 295.5,94.5 Z"/></g>
<g><path style="opacity:0.624" fill="#000000" d="M 117.5,95.5 C 118.5,95.5 119.5,95.5 120.5,95.5C 120.5,96.5 120.5,97.5 120.5,98.5C 115.145,99.057 109.812,99.7237 104.5,100.5C 103.614,99.675 103.281,98.675 103.5,97.5C 108.338,97.0886 113.005,96.4219 117.5,95.5 Z"/></g>
<g><path style="opacity:0.624" fill="#000000" d="M 390.5,95.5 C 396.167,96.1667 401.833,96.8333 407.5,97.5C 407.719,98.675 407.386,99.675 406.5,100.5C 401.201,99.6542 395.867,98.9876 390.5,98.5C 390.5,97.5 390.5,96.5 390.5,95.5 Z"/></g>
<g><path style="opacity:0.583" fill="#000000" d="M 229.5,97.5 C 234.095,98.8152 238.761,99.8152 243.5,100.5C 243.5,101.5 243.5,102.5 243.5,103.5C 239.149,102.83 234.816,101.996 230.5,101C 229.663,99.9887 229.33,98.8221 229.5,97.5 Z"/></g>
<g><path style="opacity:0.577" fill="#000000" d="M 279.5,97.5 C 281.652,98.0768 281.985,99.2435 280.5,101C 276.184,101.996 271.851,102.83 267.5,103.5C 267.5,102.5 267.5,101.5 267.5,100.5C 271.761,100.102 275.761,99.1016 279.5,97.5 Z"/></g>
<g><path style="opacity:0.664" fill="#000000" d="M 166.5,103.5 C 168.176,104.183 168.843,105.517 168.5,107.5C 159.215,107.251 150.049,107.918 141,109.5C 140.51,108.207 140.343,106.873 140.5,105.5C 149.343,105.179 158.009,104.512 166.5,103.5 Z"/></g>
<g><path style="opacity:0.622" fill="#000000" d="M 178.5,103.5 C 184.441,104.413 190.441,104.746 196.5,104.5C 196.762,105.978 196.429,107.311 195.5,108.5C 189.896,107.546 184.229,107.212 178.5,107.5C 178.5,106.167 178.5,104.833 178.5,103.5 Z"/></g>
<g><path style="opacity:0.622" fill="#000000" d="M 330.5,103.5 C 332.176,104.183 332.843,105.517 332.5,107.5C 326.771,107.212 321.104,107.546 315.5,108.5C 314.571,107.311 314.238,105.978 314.5,104.5C 320.026,104.821 325.36,104.488 330.5,103.5 Z"/></g>
<g><path style="opacity:0.664" fill="#000000" d="M 342.5,103.5 C 351.789,104.439 361.123,105.106 370.5,105.5C 370.657,106.873 370.49,108.207 370,109.5C 360.951,107.918 351.785,107.251 342.5,107.5C 342.5,106.167 342.5,104.833 342.5,103.5 Z"/></g>
<g><path style="opacity:0.648" fill="#000000" d="M 201.5,105.5 C 209.3,106.1 216.966,107.433 224.5,109.5C 223.652,110.991 222.319,111.658 220.5,111.5C 214.865,110.45 209.198,109.616 203.5,109C 202.027,108.29 201.36,107.124 201.5,105.5 Z"/></g>
<g><path style="opacity:0.648" fill="#000000" d="M 305.5,105.5 C 306.833,105.5 308.167,105.5 309.5,105.5C 309.64,107.124 308.973,108.29 307.5,109C 301.802,109.616 296.135,110.45 290.5,111.5C 288.681,111.658 287.348,110.991 286.5,109.5C 292.892,107.829 299.226,106.496 305.5,105.5 Z"/></g>
<g><path style="opacity:0.659" fill="#000000" d="M 130.5,106.5 C 131.5,106.5 132.5,106.5 133.5,106.5C 133.67,107.822 133.337,108.989 132.5,110C 121.864,111.297 111.198,112.13 100.5,112.5C 100.5,111.5 100.5,110.5 100.5,109.5C 110.702,109.089 120.702,108.089 130.5,106.5 Z"/></g>
<g><path style="opacity:0.665" fill="#000000" d="M 377.5,106.5 C 388.452,107.92 399.452,108.92 410.5,109.5C 410.5,110.5 410.5,111.5 410.5,112.5C 399.802,112.13 389.136,111.297 378.5,110C 377.663,108.989 377.33,107.822 377.5,106.5 Z"/></g>
<g><path style="opacity:0.612" fill="#000000" d="M 228.5,109.5 C 233.127,110.657 237.794,111.824 242.5,113C 243.337,114.011 243.67,115.178 243.5,116.5C 238.585,115.117 233.585,114.117 228.5,113.5C 228.5,112.167 228.5,110.833 228.5,109.5 Z"/></g>
<g><path style="opacity:0.6" fill="#000000" d="M 281.5,109.5 C 282.434,110.568 282.768,111.901 282.5,113.5C 277.468,114.341 272.468,115.341 267.5,116.5C 267.33,115.178 267.663,114.011 268.5,113C 272.999,111.961 277.332,110.794 281.5,109.5 Z"/></g>
<g><path style="opacity:0.622" fill="#000000" d="M 156.5,116.5 C 160.167,116.5 163.833,116.5 167.5,116.5C 167.5,117.5 167.5,118.5 167.5,119.5C 162.819,119.669 158.152,120.002 153.5,120.5C 153.5,119.5 153.5,118.5 153.5,117.5C 154.791,117.737 155.791,117.404 156.5,116.5 Z"/></g>
<g><path style="opacity:0.649" fill="#000000" d="M 176.5,116.5 C 187.514,116.963 198.514,117.629 209.5,118.5C 209.762,119.978 209.429,121.311 208.5,122.5C 197.914,120.84 187.247,119.84 176.5,119.5C 176.5,118.5 176.5,117.5 176.5,116.5 Z"/></g>
<g><path style="opacity:0.656" fill="#000000" d="M 322.5,116.5 C 326.5,116.5 330.5,116.5 334.5,116.5C 334.5,117.5 334.5,118.5 334.5,119.5C 323.747,119.788 313.081,120.788 302.5,122.5C 301.571,121.311 301.238,119.978 301.5,118.5C 308.683,118.232 315.683,117.565 322.5,116.5 Z"/></g>
<g><path style="opacity:0.622" fill="#000000" d="M 343.5,116.5 C 348.214,116.353 352.881,116.686 357.5,117.5C 357.5,118.5 357.5,119.5 357.5,120.5C 352.848,120.002 348.181,119.669 343.5,119.5C 343.5,118.5 343.5,117.5 343.5,116.5 Z"/></g>
<g><path style="opacity:0.671" fill="#000000" d="M 136.5,118.5 C 139.518,118.335 142.518,118.502 145.5,119C 145.957,119.414 146.291,119.914 146.5,120.5C 137.255,122.291 127.922,123.291 118.5,123.5C 118.5,122.5 118.5,121.5 118.5,120.5C 124.699,120.348 130.699,119.682 136.5,118.5 Z"/></g>
<g><path style="opacity:0.671" fill="#000000" d="M 365.5,118.5 C 374.505,119.101 383.505,119.767 392.5,120.5C 392.5,121.5 392.5,122.5 392.5,123.5C 383.078,123.291 373.745,122.291 364.5,120.5C 364.863,119.817 365.196,119.15 365.5,118.5 Z"/></g>
<g><path style="opacity:0.65" fill="#000000" d="M 215.5,120.5 C 224.926,121.652 234.259,123.319 243.5,125.5C 243.5,126.5 243.5,127.5 243.5,128.5C 234.218,126.577 224.885,124.91 215.5,123.5C 215.5,122.5 215.5,121.5 215.5,120.5 Z"/></g>
<g><path style="opacity:0.65" fill="#000000" d="M 289.5,120.5 C 291.5,120.5 293.5,120.5 295.5,120.5C 295.5,121.5 295.5,122.5 295.5,123.5C 286.115,124.91 276.782,126.577 267.5,128.5C 267.5,127.5 267.5,126.5 267.5,125.5C 275.005,124.069 282.338,122.402 289.5,120.5 Z"/></g>
<g><path style="opacity:0.652" fill="#000000" d="M 105.5,121.5 C 107.5,121.5 109.5,121.5 111.5,121.5C 111.5,122.5 111.5,123.5 111.5,124.5C 106.87,125.229 102.203,125.563 97.5,125.5C 97.5,124.5 97.5,123.5 97.5,122.5C 100.385,122.806 103.052,122.473 105.5,121.5 Z"/></g>
<g><path style="opacity:0.652" fill="#000000" d="M 399.5,121.5 C 404.152,121.998 408.819,122.331 413.5,122.5C 413.5,123.5 413.5,124.5 413.5,125.5C 408.797,125.563 404.13,125.229 399.5,124.5C 399.5,123.5 399.5,122.5 399.5,121.5 Z"/></g>
<g><path style="opacity:0.671" fill="#000000" d="M 152.5,129.5 C 156.846,129.334 161.179,129.501 165.5,130C 165.957,130.414 166.291,130.914 166.5,131.5C 161.228,132.678 155.895,133.345 150.5,133.5C 150.527,131.801 151.194,130.467 152.5,129.5 Z"/></g>
<g><path style="opacity:0.716" fill="#000000" d="M 175.5,129.5 C 180.167,129.5 184.833,129.5 189.5,129.5C 189.5,130.5 189.5,131.5 189.5,132.5C 184.833,132.5 180.167,132.5 175.5,132.5C 175.5,131.5 175.5,130.5 175.5,129.5 Z"/></g>
<g><path style="opacity:0.716" fill="#000000" d="M 321.5,129.5 C 326.167,129.5 330.833,129.5 335.5,129.5C 335.5,130.5 335.5,131.5 335.5,132.5C 330.833,132.5 326.167,132.5 321.5,132.5C 321.5,131.5 321.5,130.5 321.5,129.5 Z"/></g>
<g><path style="opacity:0.671" fill="#000000" d="M 345.5,129.5 C 349.846,129.334 354.179,129.501 358.5,130C 359.973,130.71 360.64,131.876 360.5,133.5C 355.105,133.345 349.772,132.678 344.5,131.5C 344.863,130.817 345.196,130.15 345.5,129.5 Z"/></g>
<g><path style="opacity:0.685" fill="#000000" d="M 193.5,130.5 C 210.168,131.119 226.501,133.786 242.5,138.5C 243.386,139.325 243.719,140.325 243.5,141.5C 227.014,137.752 210.347,135.086 193.5,133.5C 193.5,132.5 193.5,131.5 193.5,130.5 Z"/></g>
<g><path style="opacity:0.684" fill="#000000" d="M 307.5,130.5 C 310.833,130.5 314.167,130.5 317.5,130.5C 317.5,131.5 317.5,132.5 317.5,133.5C 300.651,135.086 283.984,137.753 267.5,141.5C 267.36,139.876 268.027,138.71 269.5,138C 282.191,134.895 294.858,132.395 307.5,130.5 Z"/></g>
<g><path style="opacity:0.676" fill="#000000" d="M 132.5,131.5 C 136.167,131.5 139.833,131.5 143.5,131.5C 143.5,132.5 143.5,133.5 143.5,134.5C 136.167,135.167 128.833,135.833 121.5,136.5C 121.36,134.876 122.027,133.71 123.5,133C 126.695,132.819 129.695,132.319 132.5,131.5 Z"/></g>
<g><path style="opacity:0.684" fill="#000000" d="M 367.5,131.5 C 374.524,131.608 381.524,132.108 388.5,133C 389.337,134.011 389.67,135.178 389.5,136.5C 382.174,135.76 374.841,135.093 367.5,134.5C 367.5,133.5 367.5,132.5 367.5,131.5 Z"/></g>
<g><path style="opacity:0.7" fill="#000000" d="M 101.5,134.5 C 105.5,134.5 109.5,134.5 113.5,134.5C 113.5,135.5 113.5,136.5 113.5,137.5C 107.185,138.11 100.851,138.443 94.5,138.5C 94.5,137.5 94.5,136.5 94.5,135.5C 97.0593,135.802 99.3926,135.468 101.5,134.5 Z"/></g>
<g><path style="opacity:0.701" fill="#000000" d="M 397.5,134.5 C 403.857,134.476 410.19,134.81 416.5,135.5C 416.5,136.5 416.5,137.5 416.5,138.5C 410.149,138.443 403.815,138.11 397.5,137.5C 397.5,136.5 397.5,135.5 397.5,134.5 Z"/></g>
<g><path style="opacity:0.667" fill="#000000" d="M 154.5,140.5 C 157.833,140.5 161.167,140.5 164.5,140.5C 164.64,142.124 163.973,143.29 162.5,144C 155.165,144.548 147.831,145.048 140.5,145.5C 140.5,144.5 140.5,143.5 140.5,142.5C 145.338,142.089 150.005,141.422 154.5,140.5 Z"/></g>
<g><path style="opacity:0.693" fill="#000000" d="M 174.5,140.5 C 183.182,140.521 191.848,140.854 200.5,141.5C 200.5,142.833 200.5,144.167 200.5,145.5C 191.867,144.55 183.2,143.883 174.5,143.5C 174.5,142.5 174.5,141.5 174.5,140.5 Z"/></g>
<g><path style="opacity:0.693" fill="#000000" d="M 319.5,140.5 C 325.167,140.5 330.833,140.5 336.5,140.5C 336.5,141.5 336.5,142.5 336.5,143.5C 327.8,143.883 319.133,144.55 310.5,145.5C 310.5,144.167 310.5,142.833 310.5,141.5C 313.713,141.81 316.713,141.477 319.5,140.5 Z"/></g>
<g><path style="opacity:0.667" fill="#000000" d="M 346.5,140.5 C 354.539,140.771 362.539,141.437 370.5,142.5C 370.5,143.5 370.5,144.5 370.5,145.5C 363.169,145.048 355.835,144.548 348.5,144C 347.027,143.29 346.36,142.124 346.5,140.5 Z"/></g>
<g><path style="opacity:0.632" fill="#000000" d="M 206.5,142.5 C 211.484,143.275 216.484,143.942 221.5,144.5C 221.762,145.978 221.429,147.311 220.5,148.5C 215.934,147.184 211.268,146.517 206.5,146.5C 206.5,145.167 206.5,143.833 206.5,142.5 Z"/></g>
<g><path style="opacity:0.632" fill="#000000" d="M 300.5,142.5 C 301.833,142.5 303.167,142.5 304.5,142.5C 304.5,143.833 304.5,145.167 304.5,146.5C 299.732,146.517 295.066,147.184 290.5,148.5C 289.571,147.311 289.238,145.978 289.5,144.5C 293.387,144.354 297.054,143.687 300.5,142.5 Z"/></g>
<g><path style="opacity:0.708" fill="#000000" d="M 124.5,143.5 C 127.833,143.5 131.167,143.5 134.5,143.5C 134.5,144.5 134.5,145.5 134.5,146.5C 125.867,147.563 117.201,148.23 108.5,148.5C 108.5,147.5 108.5,146.5 108.5,145.5C 114.034,145.332 119.367,144.665 124.5,143.5 Z"/></g>
<g><path style="opacity:0.7" fill="#000000" d="M 376.5,143.5 C 385.189,143.902 393.856,144.569 402.5,145.5C 402.5,146.5 402.5,147.5 402.5,148.5C 393.799,148.23 385.133,147.563 376.5,146.5C 376.5,145.5 376.5,144.5 376.5,143.5 Z"/></g>
<g><path style="opacity:0.618" fill="#000000" d="M 92.5,146.5 C 95.8333,146.5 99.1667,146.5 102.5,146.5C 102.5,147.5 102.5,148.5 102.5,149.5C 99.1667,149.833 95.8333,150.167 92.5,150.5C 92.5,149.167 92.5,147.833 92.5,146.5 Z"/></g>
<g><path style="opacity:0.651" fill="#000000" d="M 227.5,146.5 C 232.893,147.182 238.227,148.182 243.5,149.5C 243.688,151.103 243.188,152.437 242,153.5C 237.971,151.958 233.804,150.792 229.5,150C 228.027,149.29 227.36,148.124 227.5,146.5 Z"/></g>
<g><path style="opacity:0.644" fill="#000000" d="M 278.5,146.5 C 280.167,146.5 281.833,146.5 283.5,146.5C 283.64,148.124 282.973,149.29 281.5,150C 277.238,150.94 273.072,152.106 269,153.5C 267.812,152.437 267.312,151.103 267.5,149.5C 271.397,148.945 275.063,147.945 278.5,146.5 Z"/></g>
<g><path style="opacity:0.618" fill="#000000" d="M 408.5,146.5 C 411.833,146.5 415.167,146.5 418.5,146.5C 418.5,147.833 418.5,149.167 418.5,150.5C 415.167,150.167 411.833,149.833 408.5,149.5C 408.5,148.5 408.5,147.5 408.5,146.5 Z"/></g>
<g><path style="opacity:0.706" fill="#000000" d="M 150.5,153.5 C 154.5,153.5 158.5,153.5 162.5,153.5C 162.64,155.124 161.973,156.29 160.5,157C 151.143,157.651 141.81,158.484 132.5,159.5C 132.5,158.167 132.5,156.833 132.5,155.5C 138.699,155.348 144.699,154.682 150.5,153.5 Z"/></g>
<g><path style="opacity:0.845" fill="#000000" d="M 172.5,153.5 C 176.833,153.5 181.167,153.5 185.5,153.5C 185.5,154.5 185.5,155.5 185.5,156.5C 181.167,156.5 176.833,156.5 172.5,156.5C 172.5,155.5 172.5,154.5 172.5,153.5 Z"/></g>
<g><path style="opacity:0.705" fill="#000000" d="M 192.5,153.5 C 209.356,155.143 226.023,157.976 242.5,162C 243.337,163.011 243.67,164.178 243.5,165.5C 226.657,161.86 209.657,159.193 192.5,157.5C 192.5,156.167 192.5,154.833 192.5,153.5 Z"/></g>
<g><path style="opacity:0.702" fill="#000000" d="M 315.5,153.5 C 316.5,153.5 317.5,153.5 318.5,153.5C 318.5,154.833 318.5,156.167 318.5,157.5C 301.341,159.193 284.341,161.86 267.5,165.5C 267.36,163.876 268.027,162.71 269.5,162C 284.794,158.176 300.128,155.342 315.5,153.5 Z"/></g>
<g><path style="opacity:0.845" fill="#000000" d="M 325.5,153.5 C 329.833,153.5 334.167,153.5 338.5,153.5C 338.5,154.5 338.5,155.5 338.5,156.5C 334.167,156.5 329.833,156.5 325.5,156.5C 325.5,155.5 325.5,154.5 325.5,153.5 Z"/></g>
<g><path style="opacity:0.706" fill="#000000" d="M 348.5,153.5 C 358.519,153.902 368.519,154.569 378.5,155.5C 378.5,156.833 378.5,158.167 378.5,159.5C 369.19,158.484 359.857,157.651 350.5,157C 349.027,156.29 348.36,155.124 348.5,153.5 Z"/></g>
<g><path style="opacity:0.714" fill="#000000" d="M 121.5,156.5 C 123.167,156.5 124.833,156.5 126.5,156.5C 126.5,157.833 126.5,159.167 126.5,160.5C 114.17,161.551 101.837,162.551 89.5,163.5C 89.5,162.167 89.5,160.833 89.5,159.5C 100.372,159.151 111.039,158.151 121.5,156.5 Z"/></g>
<g><path style="opacity:0.714" fill="#000000" d="M 384.5,156.5 C 396.806,157.801 409.139,158.801 421.5,159.5C 421.5,160.833 421.5,162.167 421.5,163.5C 409.163,162.551 396.83,161.551 384.5,160.5C 384.5,159.167 384.5,157.833 384.5,156.5 Z"/></g>
<g><path style="opacity:0.747" fill="#000000" d="M 171.5,165.5 C 185.198,166.113 198.865,167.28 212.5,169C 213.337,170.011 213.67,171.178 213.5,172.5C 199.547,170.888 185.547,169.888 171.5,169.5C 171.5,168.167 171.5,166.833 171.5,165.5 Z"/></g>
<g><path style="opacity:0.746" fill="#000000" d="M 336.5,165.5 C 337.5,165.5 338.5,165.5 339.5,165.5C 339.5,166.833 339.5,168.167 339.5,169.5C 325.453,169.888 311.453,170.888 297.5,172.5C 297.33,171.178 297.663,170.011 298.5,169C 311.279,167.374 323.946,166.208 336.5,165.5 Z"/></g>
<g><path style="opacity:0.66" fill="#000000" d="M 150.5,166.5 C 153.833,166.5 157.167,166.5 160.5,166.5C 160.67,167.822 160.337,168.989 159.5,170C 155.848,170.499 152.182,170.665 148.5,170.5C 148.527,168.801 149.194,167.467 150.5,166.5 Z"/></g>
<g><path style="opacity:0.661" fill="#000000" d="M 350.5,166.5 C 353.85,166.335 357.183,166.502 360.5,167C 361.973,167.71 362.64,168.876 362.5,170.5C 358.818,170.665 355.152,170.499 351.5,170C 350.663,168.989 350.33,167.822 350.5,166.5 Z"/></g>
<g><path style="opacity:0.707" fill="#000000" d="M 140.5,167.5 C 142.121,167.787 143.121,168.787 143.5,170.5C 129.945,172.889 116.278,174.556 102.5,175.5C 102.5,174.167 102.5,172.833 102.5,171.5C 115.377,170.813 128.044,169.48 140.5,167.5 Z"/></g>
<g><path style="opacity:0.702" fill="#000000" d="M 368.5,167.5 C 381.775,169.227 395.108,170.561 408.5,171.5C 408.5,172.833 408.5,174.167 408.5,175.5C 394.722,174.556 381.055,172.889 367.5,170.5C 368.127,169.583 368.461,168.583 368.5,167.5 Z"/></g>
<g><path style="opacity:0.673" fill="#000000" d="M 220.5,170.5 C 227.914,171.549 235.247,173.049 242.5,175C 243.337,176.011 243.67,177.178 243.5,178.5C 235.786,177.324 228.119,175.824 220.5,174C 219.829,173.014 219.829,171.847 220.5,170.5 Z"/></g>
<g><path style="opacity:0.667" fill="#000000" d="M 286.5,170.5 C 288.958,170.227 290.625,171.227 291.5,173.5C 283.602,175.68 275.602,177.346 267.5,178.5C 267.33,177.178 267.663,176.011 268.5,175C 274.639,173.545 280.639,172.045 286.5,170.5 Z"/></g>
<g><path style="opacity:0.631" fill="#000000" d="M 86.5,172.5 C 90.6348,171.89 94.3014,172.723 97.5,175C 93.9743,176.337 90.3076,176.837 86.5,176.5C 86.5,175.167 86.5,173.833 86.5,172.5 Z"/></g>
<g><path style="opacity:0.631" fill="#000000" d="M 414.5,172.5 C 417.833,172.5 421.167,172.5 424.5,172.5C 424.5,173.833 424.5,175.167 424.5,176.5C 420.692,176.837 417.026,176.337 413.5,175C 414.252,174.329 414.586,173.496 414.5,172.5 Z"/></g>
<g><path style="opacity:0.725" fill="#000000" d="M 170.5,178.5 C 179.152,179.133 187.818,179.633 196.5,180C 198.497,181.153 198.83,182.653 197.5,184.5C 188.546,183.522 179.546,182.855 170.5,182.5C 170.5,181.167 170.5,179.833 170.5,178.5 Z"/></g>
<g><path style="opacity:0.725" fill="#000000" d="M 334.5,178.5 C 336.5,178.5 338.5,178.5 340.5,178.5C 340.5,179.833 340.5,181.167 340.5,182.5C 331.454,182.855 322.454,183.522 313.5,184.5C 312.17,182.653 312.503,181.153 314.5,180C 321.346,179.828 328.013,179.328 334.5,178.5 Z"/></g>
<g><path style="opacity:0.719" fill="#000000" d="M 150.5,179.5 C 153.247,179.187 155.914,179.52 158.5,180.5C 158.833,181.167 159.167,181.833 159.5,182.5C 147.559,184.361 135.559,185.694 123.5,186.5C 123.5,185.167 123.5,183.833 123.5,182.5C 132.696,181.997 141.696,180.997 150.5,179.5 Z"/></g>
<g><path style="opacity:0.714" fill="#000000" d="M 352.5,179.5 C 364.173,180.434 375.839,181.434 387.5,182.5C 387.5,183.833 387.5,185.167 387.5,186.5C 375.441,185.694 363.441,184.361 351.5,182.5C 352.127,181.583 352.461,180.583 352.5,179.5 Z"/></g>
<g><path style="opacity:0.703" fill="#000000" d="M 204.5,181.5 C 212.259,181.847 219.925,182.847 227.5,184.5C 227.5,185.833 227.5,187.167 227.5,188.5C 220.196,187.227 212.862,186.06 205.5,185C 204.663,183.989 204.33,182.822 204.5,181.5 Z"/></g>
<g><path style="opacity:0.702" fill="#000000" d="M 298.5,181.5 C 301.167,181.5 303.833,181.5 306.5,181.5C 306.67,182.822 306.337,183.989 305.5,185C 298.138,186.06 290.804,187.227 283.5,188.5C 283.5,187.167 283.5,185.833 283.5,184.5C 288.647,183.604 293.647,182.604 298.5,181.5 Z"/></g>
<g><path style="opacity:0.729" fill="#000000" d="M 110.5,183.5 C 113.916,182.894 116.582,183.894 118.5,186.5C 106.939,188.642 95.2726,189.642 83.5,189.5C 83.33,188.178 83.6634,187.011 84.5,186C 93.3649,185.669 102.032,184.836 110.5,183.5 Z"/></g>
<g><path style="opacity:0.725" fill="#000000" d="M 393.5,183.5 C 404.49,184.388 415.49,185.221 426.5,186C 427.337,187.011 427.67,188.178 427.5,189.5C 415.727,189.642 404.061,188.642 392.5,186.5C 393.127,185.583 393.461,184.583 393.5,183.5 Z"/></g>
<g><path style="opacity:0.649" fill="#000000" d="M 233.5,185.5 C 236.421,186.481 239.421,187.315 242.5,188C 243.849,189.635 243.682,191.135 242,192.5C 239.263,191.44 236.43,190.606 233.5,190C 232.272,188.51 232.272,187.01 233.5,185.5 Z"/></g>
<g><path style="opacity:0.648" fill="#000000" d="M 276.5,185.5 C 278.582,186.585 278.916,188.085 277.5,190C 274.57,190.606 271.737,191.44 269,192.5C 267.318,191.135 267.151,189.635 268.5,188C 271.379,187.454 274.046,186.621 276.5,185.5 Z"/></g>
<g><path style="opacity:0.715" fill="#000000" d="M 167.5,192.5 C 175.547,192.277 183.547,192.777 191.5,194C 190.663,195.011 190.33,196.178 190.5,197.5C 182.862,196.687 175.196,196.354 167.5,196.5C 167.5,195.167 167.5,193.833 167.5,192.5 Z"/></g>
<g><path style="opacity:0.715" fill="#000000" d="M 326.5,192.5 C 332.167,192.5 337.833,192.5 343.5,192.5C 343.5,193.833 343.5,195.167 343.5,196.5C 335.804,196.354 328.138,196.687 320.5,197.5C 320.67,196.178 320.337,195.011 319.5,194C 322.036,193.814 324.369,193.314 326.5,192.5 Z"/></g>
<g><path style="opacity:0.687" fill="#000000" d="M 147.5,193.5 C 150.833,193.5 154.167,193.5 157.5,193.5C 157.5,194.833 157.5,196.167 157.5,197.5C 153.119,197.372 148.785,197.705 144.5,198.5C 144.5,197.167 144.5,195.833 144.5,194.5C 145.791,194.737 146.791,194.404 147.5,193.5 Z"/></g>
<g><path style="opacity:0.687" fill="#000000" d="M 353.5,193.5 C 357.881,193.372 362.215,193.705 366.5,194.5C 366.5,195.833 366.5,197.167 366.5,198.5C 362.215,197.705 357.881,197.372 353.5,197.5C 353.5,196.167 353.5,194.833 353.5,193.5 Z"/></g>
<g><path style="opacity:0.715" fill="#000000" d="M 137.5,194.5 C 140.85,195.378 141.183,196.878 138.5,199C 128.522,200.165 118.522,200.998 108.5,201.5C 108.5,200.167 108.5,198.833 108.5,197.5C 118.382,197.212 128.049,196.212 137.5,194.5 Z"/></g>
<g><path style="opacity:0.709" fill="#000000" d="M 198.5,194.5 C 205.896,194.723 213.23,195.556 220.5,197C 223.064,198.481 223.064,199.981 220.5,201.5C 213.267,199.795 205.933,198.628 198.5,198C 197.829,197.014 197.829,195.847 198.5,194.5 Z"/></g>
<g><path style="opacity:0.708" fill="#000000" d="M 303.5,194.5 C 306.572,194.183 309.572,194.516 312.5,195.5C 313.641,196.425 313.641,197.259 312.5,198C 305.067,198.628 297.733,199.795 290.5,201.5C 287.936,199.981 287.936,198.481 290.5,197C 295.015,196.386 299.348,195.552 303.5,194.5 Z"/></g>
<g><path style="opacity:0.715" fill="#000000" d="M 371.5,194.5 C 381.769,195.96 392.103,196.96 402.5,197.5C 402.5,198.833 402.5,200.167 402.5,201.5C 391.784,200.939 381.117,199.939 370.5,198.5C 370.433,197.041 370.766,195.708 371.5,194.5 Z"/></g>
<g><path style="opacity:0.713" fill="#000000" d="M 95.5,198.5 C 97.1667,198.5 98.8333,198.5 100.5,198.5C 100.5,199.833 100.5,201.167 100.5,202.5C 93.8627,203.276 87.1961,203.609 80.5,203.5C 80.5,202.167 80.5,200.833 80.5,199.5C 85.6946,199.821 90.6946,199.487 95.5,198.5 Z"/></g>
<g><path style="opacity:0.713" fill="#000000" d="M 410.5,198.5 C 417.137,199.276 423.804,199.609 430.5,199.5C 430.5,200.833 430.5,202.167 430.5,203.5C 423.804,203.609 417.137,203.276 410.5,202.5C 410.5,201.167 410.5,199.833 410.5,198.5 Z"/></g>
<g><path style="opacity:0.665" fill="#000000" d="M 231.5,199.5 C 235.5,200.167 239.5,200.833 243.5,201.5C 243.5,202.833 243.5,204.167 243.5,205.5C 238.986,205.288 234.652,204.288 230.5,202.5C 231.127,201.583 231.461,200.583 231.5,199.5 Z"/></g>
<g><path style="opacity:0.661" fill="#000000" d="M 275.5,199.5 C 277.958,199.227 279.625,200.227 280.5,202.5C 276.348,204.288 272.014,205.288 267.5,205.5C 267.5,204.167 267.5,202.833 267.5,201.5C 270.428,201.435 273.095,200.768 275.5,199.5 Z"/></g>
<g><path style="opacity:0.715" fill="#000000" d="M 152.5,207.5 C 153.5,207.5 154.5,207.5 155.5,207.5C 155.5,209.167 155.5,210.833 155.5,212.5C 145.092,212.908 134.759,213.908 124.5,215.5C 122.404,214.38 122.07,212.88 123.5,211C 133.336,210.001 143.003,208.834 152.5,207.5 Z"/></g>
<g><path style="opacity:0.76" fill="#000000" d="M 165.5,207.5 C 179.609,207.003 193.609,207.837 207.5,210C 206.663,211.011 206.33,212.178 206.5,213.5C 192.886,211.929 179.219,211.262 165.5,211.5C 165.5,210.167 165.5,208.833 165.5,207.5 Z"/></g>
<g><path style="opacity:0.76" fill="#000000" d="M 317.5,207.5 C 326.833,207.5 336.167,207.5 345.5,207.5C 345.5,208.833 345.5,210.167 345.5,211.5C 331.781,211.262 318.114,211.929 304.5,213.5C 304.67,212.178 304.337,211.011 303.5,210C 308.272,209.017 312.938,208.183 317.5,207.5 Z"/></g>
<g><path style="opacity:0.72" fill="#000000" d="M 355.5,207.5 C 366.458,208.866 377.458,209.866 388.5,210.5C 388.884,212.665 388.217,214.332 386.5,215.5C 376.253,213.775 365.92,212.775 355.5,212.5C 355.5,210.833 355.5,209.167 355.5,207.5 Z"/></g>
<g><path style="opacity:0.721" fill="#000000" d="M 213.5,210.5 C 222.935,211.754 232.268,213.587 241.5,216C 243.107,217.049 243.773,218.549 243.5,220.5C 234.22,218.477 224.887,216.644 215.5,215C 213.893,213.951 213.227,212.451 213.5,210.5 Z"/></g>
<g><path style="opacity:0.721" fill="#000000" d="M 292.5,210.5 C 294.167,210.5 295.833,210.5 297.5,210.5C 297.773,212.451 297.107,213.951 295.5,215C 286.113,216.644 276.78,218.477 267.5,220.5C 267.227,218.549 267.893,217.049 269.5,216C 277.31,214.21 284.977,212.376 292.5,210.5 Z"/></g>
<g><path style="opacity:0.727" fill="#000000" d="M 112.5,211.5 C 113.833,211.5 115.167,211.5 116.5,211.5C 116.714,213.144 116.38,214.644 115.5,216C 108.515,216.771 101.515,217.271 94.5,217.5C 94.5,216.167 94.5,214.833 94.5,213.5C 100.688,213.243 106.688,212.577 112.5,211.5 Z"/></g>
<g><path style="opacity:0.72" fill="#000000" d="M 394.5,211.5 C 401.819,212.277 409.153,212.943 416.5,213.5C 416.5,214.833 416.5,216.167 416.5,217.5C 409.485,217.271 402.485,216.771 395.5,216C 394.62,214.644 394.286,213.144 394.5,211.5 Z"/></g>
<g><path style="opacity:0.716" fill="#000000" d="M 87.5,213.5 C 89.256,214.552 89.9227,216.219 89.5,218.5C 85.8333,218.5 82.1667,218.5 78.5,218.5C 78.5,217.167 78.5,215.833 78.5,214.5C 81.7131,214.81 84.7131,214.477 87.5,213.5 Z"/></g>
<g><path style="opacity:0.716" fill="#000000" d="M 421.5,213.5 C 425.099,214.344 428.766,214.677 432.5,214.5C 432.5,215.833 432.5,217.167 432.5,218.5C 428.833,218.5 425.167,218.5 421.5,218.5C 421.5,216.833 421.5,215.167 421.5,213.5 Z"/></g>
<g><path style="opacity:0.722" fill="#000000" d="M 164.5,221.5 C 169.167,221.5 173.833,221.5 178.5,221.5C 178.5,222.833 178.5,224.167 178.5,225.5C 173.797,225.437 169.13,225.771 164.5,226.5C 164.5,224.833 164.5,223.167 164.5,221.5 Z"/></g>
<g><path style="opacity:0.71" fill="#000000" d="M 332.5,221.5 C 337.167,221.5 341.833,221.5 346.5,221.5C 346.5,223.167 346.5,224.833 346.5,226.5C 341.859,225.873 337.193,225.54 332.5,225.5C 332.5,224.167 332.5,222.833 332.5,221.5 Z"/></g>
<g><path style="opacity:0.75" fill="#000000" d="M 147.5,222.5 C 149.167,222.5 150.833,222.5 152.5,222.5C 152.33,223.822 152.663,224.989 153.5,226C 139.935,228.29 126.268,229.79 112.5,230.5C 112.5,229.167 112.5,227.833 112.5,226.5C 124.359,225.616 136.026,224.283 147.5,222.5 Z"/></g>
<g><path style="opacity:0.736" fill="#000000" d="M 185.5,222.5 C 197.226,222.84 208.893,223.84 220.5,225.5C 220.509,227.308 220.009,228.975 219,230.5C 207.664,228.111 196.164,226.777 184.5,226.5C 184.433,225.041 184.766,223.708 185.5,222.5 Z"/></g>
<g><path style="opacity:0.734" fill="#000000" d="M 312.5,222.5 C 316.846,222.334 321.179,222.501 325.5,223C 326.337,224.011 326.67,225.178 326.5,226.5C 314.837,226.777 303.337,228.11 292,230.5C 290.991,228.975 290.491,227.308 290.5,225.5C 298.018,224.854 305.352,223.854 312.5,222.5 Z"/></g>
<g><path style="opacity:0.75" fill="#000000" d="M 358.5,222.5 C 371.819,223.965 385.152,225.299 398.5,226.5C 398.5,227.833 398.5,229.167 398.5,230.5C 384.734,229.767 371.068,228.267 357.5,226C 358.337,224.989 358.67,223.822 358.5,222.5 Z"/></g>
<g><path style="opacity:0.745" fill="#000000" d="M 96.5,227.5 C 100.167,227.5 103.833,227.5 107.5,227.5C 107.5,228.833 107.5,230.167 107.5,231.5C 96.8366,232.211 86.1699,232.878 75.5,233.5C 75.5,232.167 75.5,230.833 75.5,229.5C 82.6561,228.986 89.6561,228.319 96.5,227.5 Z"/></g>
<g><path style="opacity:0.7" fill="#000000" d="M 225.5,227.5 C 231.546,228.243 237.546,229.243 243.5,230.5C 243.884,232.665 243.217,234.332 241.5,235.5C 236.259,233.785 230.925,232.452 225.5,231.5C 225.5,230.167 225.5,228.833 225.5,227.5 Z"/></g>
<g><path style="opacity:0.706" fill="#000000" d="M 280.5,227.5 C 282.167,227.5 283.833,227.5 285.5,227.5C 285.5,228.833 285.5,230.167 285.5,231.5C 280.096,232.518 274.762,233.851 269.5,235.5C 267.783,234.332 267.116,232.665 267.5,230.5C 272.12,230.26 276.453,229.26 280.5,227.5 Z"/></g>
<g><path style="opacity:0.745" fill="#000000" d="M 403.5,227.5 C 414.192,227.894 424.859,228.56 435.5,229.5C 435.5,230.833 435.5,232.167 435.5,233.5C 424.83,232.878 414.163,232.211 403.5,231.5C 403.5,230.167 403.5,228.833 403.5,227.5 Z"/></g>
</svg>
